<?xml version="1.0" encoding="UTF-8" standalone="no"?>
<!-- Created with Inkscape (http://www.inkscape.org/) -->

<svg
   width="600mm"
   height="210mm"
   viewBox="0 0 600 210"
   version="1.1"
   id="svg1"
   inkscape:version="1.3.2 (091e20e, 2023-11-25, custom)"
   sodipodi:docname="Logo Tec Estude.svg"
   xmlns:inkscape="http://www.inkscape.org/namespaces/inkscape"
   xmlns:sodipodi="http://sodipodi.sourceforge.net/DTD/sodipodi-0.dtd"
   xmlns="http://www.w3.org/2000/svg"
   xmlns:svg="http://www.w3.org/2000/svg">
  <sodipodi:namedview
     id="namedview1"
     pagecolor="#ffffff"
     bordercolor="#000000"
     borderopacity="0.25"
     inkscape:showpageshadow="2"
     inkscape:pageopacity="0.0"
     inkscape:pagecheckerboard="0"
     inkscape:deskcolor="#d1d1d1"
     inkscape:document-units="mm"
     inkscape:zoom="0.35411406"
     inkscape:cx="1299.0165"
     inkscape:cy="94.602288"
     inkscape:window-width="1920"
     inkscape:window-height="991"
     inkscape:window-x="-9"
     inkscape:window-y="-9"
     inkscape:window-maximized="1"
     inkscape:current-layer="layer1" />
  <defs
     id="defs1" />
  <g
     inkscape:label="Camada 1"
     inkscape:groupmode="layer"
     id="layer1">
    <g
       id="g5"
       transform="matrix(3.1859334,0,0,3.1859334,-29.921503,-352.18234)">
      <g
         id="g2"
         transform="matrix(0.44470828,0,0,0.44470828,-0.66710981,81.932388)"
         style="fill:#272727;fill-opacity:1" />
    </g>
    <g
       id="g8"
       transform="matrix(1.0261381,0,0,1.0261381,-3.351243,-4.1699852)">
      <path
         style="font-size:53.6217px;font-family:'League Spartan';-inkscape-font-specification:'League Spartan, @wght=700';font-variation-settings:'wght' 700;fill:#272727;fill-opacity:1;stroke-width:2.75253;stroke-linecap:square;stroke-linejoin:round;stroke-miterlimit:0"
         d="m 130.54312,156.39051 q 2.90585,0 4.79208,-0.96867 1.88627,-1.01955 2.54901,-1.63129 l 7.08621,10.50185 q -0.81567,0.66271 -2.80387,1.73333 -1.98823,1.01958 -4.99603,1.78427 -2.95685,0.76466 -6.78036,0.76466 -7.18821,0 -12.64309,-2.70189 -5.45484,-2.75293 -8.51371,-7.74897 -3.00783,-4.99599 -3.00783,-11.72538 0,-6.78035 3.00783,-11.72537 3.05887,-4.94503 8.51371,-7.64699 5.45488,-2.75288 12.64309,-2.75288 3.77252,0 6.72935,0.81568 3.00782,0.76468 5.04704,1.78426 2.03917,0.96865 2.85486,1.68234 l -7.23914,10.60383 q -0.35685,-0.35686 -1.32548,-1.01962 -0.91762,-0.66272 -2.39605,-1.1725 -1.47842,-0.50982 -3.51762,-0.50982 -2.49804,0 -4.69018,1.2745 -2.14117,1.27451 -3.46666,3.51764 -1.32546,2.24312 -1.32546,5.14893 0,2.90586 1.32546,5.19996 1.32549,2.24312 3.46666,3.51762 2.19214,1.27451 4.69018,1.27451 z"
         id="path4-8"
         transform="matrix(1.416811,0,0,1.416811,-32.04687,-91.151207)" />
      <path
         style="font-size:53.6217px;font-family:'League Spartan';-inkscape-font-specification:'League Spartan, @wght=700';font-variation-settings:'wght' 700;fill:#272727;fill-opacity:1;stroke-width:2.75253;stroke-linecap:square;stroke-linejoin:round;stroke-miterlimit:0"
         d="m 75.875991,151.44406 q 0.665409,2.14759 2.305108,3.54063 1.639518,1.39306 4.057206,1.86849 2.455568,0.41407 5.481736,-0.30233 2.877327,-0.68117 5.018436,-1.81668 2.190658,-1.14731 3.666007,-2.43956 1.524908,-1.30402 2.244338,-2.46973 l 8.061798,7.94061 q -0.92311,1.63302 -2.89978,3.46314 -1.93882,1.76868 -5.422008,3.43153 -3.483157,1.66277 -9.089003,2.98988 -6.746864,1.59723 -12.604359,0.31215 -5.857515,-1.28518 -10.046391,-5.48004 -4.188817,-4.19487 -5.868226,-11.28889 -1.409298,-5.95305 0.0429,-11.32618 1.490109,-5.43451 5.793286,-9.38701 4.291526,-4.00212 11.28642,-5.65807 6.647634,-1.57375 12.0848,-0.2939 5.486765,1.26814 9.255252,5.45774 3.806339,4.12819 5.497519,11.27189 0.0939,0.39689 0.32614,1.59922 0.28185,1.19062 0.27682,1.61091 z m 13.561158,-11.5403 q -0.425489,-1.5757 -1.583248,-2.92567 -1.169609,-1.39956 -2.991968,-2.01591 -1.834138,-0.66597 -4.314596,-0.0787 -2.480468,0.58723 -3.981877,1.99046 -1.463569,1.34187 -1.992468,3.09116 -0.5289,1.74923 -0.21707,3.50901 z"
         id="path3-9"
         transform="matrix(1.416811,0,0,1.416811,-32.04687,-91.151207)" />
      <path
         style="font-size:53.6217px;font-family:'League Spartan';-inkscape-font-specification:'League Spartan, @wght=700';font-variation-settings:'wght' 700;fill:#272727;fill-opacity:1;stroke-width:2.75253;stroke-linecap:square;stroke-linejoin:round;stroke-miterlimit:0"
         d="m 29.51413,125.49667 h 7.137264 v -17.18018 h 15.345097 v 17.18018 h 9.380372 v 12.745 h -9.380372 v 11.67437 q 0,2.59998 0.764669,4.23133 0.76474,1.58036 2.803978,1.58036 1.376449,0 2.345078,-0.61173 0.968589,-0.61174 1.172519,-0.81567 l 5.301975,11.01165 q -0.356859,0.30589 -2.243128,1.12157 -1.835298,0.81567 -4.690216,1.47841 -2.854897,0.6627 -6.372564,0.6627 -6.270555,0 -10.349012,-3.51756 -4.078396,-3.56863 -4.078396,-10.9607 V 138.24167 H 29.51413 Z"
         id="text2-7"
         transform="matrix(1.416811,0,0,1.416811,-32.04687,-91.151207)" />
      <path
         style="font-size:36.8818px;font-family:'League Spartan';-inkscape-font-specification:'League Spartan, @wght=400';font-variation-settings:'wght' 400;fill:#686868;fill-opacity:1;stroke-width:2.14123;stroke-linecap:square;stroke-linejoin:round;stroke-miterlimit:0"
         d="m 419.44675,171.76617 q -2.35465,0 -4.06713,-1.66966 -1.66966,-1.71247 -1.66966,-4.06714 0,-2.44028 1.66966,-4.10995 1.71248,-1.71249 4.06713,-1.71249 2.44028,0 4.10993,1.71249 1.66966,1.66967 1.66966,4.10995 0,2.35467 -1.66966,4.06714 -1.66965,1.66966 -4.10993,1.66966 z"
         id="text11-2"
         aria-label="."
         transform="matrix(1.416811,0,0,1.416811,-32.04687,-91.151207)" />
      <path
         style="font-size:59.769px;font-family:'League Spartan';-inkscape-font-specification:'League Spartan, @wght=400';font-variation-settings:'wght' 400;fill:#686868;fill-opacity:1;stroke-width:3.47001;stroke-linecap:square;stroke-linejoin:round;stroke-miterlimit:0"
         d="m 417.2456,153.66282 q -3.81585,0 -6.59101,-2.70578 -2.70576,-2.77516 -2.70576,-6.59099 0,-3.95461 2.70576,-6.6604 2.77516,-2.77516 6.59101,-2.77516 3.95461,0 6.66038,2.77516 2.70579,2.70579 2.70579,6.6604 0,3.81583 -2.70579,6.59099 -2.70577,2.70578 -6.66038,2.70578 z"
         id="text11-0-3"
         aria-label="."
         transform="matrix(1.416811,0,0,1.416811,-32.04687,-91.151207)" />
      <path
         style="font-size:27.6316px;font-family:'League Spartan';-inkscape-font-specification:'League Spartan, @wght=400';font-variation-settings:'wght' 400;fill:#686868;fill-opacity:1;stroke-width:1.6042;stroke-linecap:square;stroke-linejoin:round;stroke-miterlimit:0"
         d="m 428.70316,160.76618 q -1.76409,0 -3.04706,-1.25089 -1.25091,-1.28296 -1.25091,-3.04705 0,-1.82824 1.25091,-3.07915 1.28297,-1.28297 3.04706,-1.28297 1.82823,0 3.07914,1.28297 1.25088,1.25091 1.25088,3.07915 0,1.76409 -1.25088,3.04705 -1.25091,1.25089 -3.07914,1.25089 z"
         id="text11-0-8-2"
         aria-label="."
         transform="matrix(1.416811,0,0,1.416811,-32.04687,-91.151207)" />
      <g
         id="g6"
         transform="matrix(1.1021449,0,0,1.1021449,-15.603194,-24.020291)"
         style="fill:#686868;fill-opacity:1">
        <path
           style="font-size:53.6217px;font-family:'League Spartan';-inkscape-font-specification:'League Spartan, @wght=700';font-variation-settings:'wght' 700;fill:#686868;fill-opacity:1;stroke-width:3.53838;stroke-linecap:square;stroke-linejoin:round;stroke-miterlimit:0"
           d="m 468.70083,133.15604 q 0.23822,2.88038 1.90897,5.08452 1.67053,2.20416 4.57282,3.47289 2.96687,1.20225 6.96414,1.14425 3.80065,-0.0551 6.80357,-0.8852 3.06836,-0.83104 5.27926,-2.04287 2.27638,-1.21281 3.50335,-2.4759 l 7.91114,12.20707 q -1.61252,1.79301 -4.60211,3.54051 -2.92502,1.68096 -7.75894,2.7998 -4.83388,1.11876 -12.23862,1.22621 -8.91192,0.12931 -15.90643,-3.11174 -6.99448,-3.24117 -11.08592,-9.67042 -4.09137,-6.42929 -4.22732,-15.79974 -0.11409,-7.86337 3.20211,-14.20346 3.38081,-6.40664 9.88034,-10.17126 6.4987,-3.83018 15.73823,-3.96426 8.78084,-0.1274 15.24923,2.99024 6.53391,3.11672 10.09918,9.42254 3.62984,6.23927 3.76676,15.67535 0.008,0.52425 -0.0352,2.09783 0.0228,1.57268 -0.10032,2.09878 z m 20.22826,-10.7147 q -0.096,-2.09593 -1.17392,-4.11207 -1.07893,-2.08169 -3.19484,-3.36178 -2.11692,-1.3457 -5.39336,-1.29807 -3.27643,0.0475 -5.55088,1.39141 -2.20993,1.27734 -3.35996,3.32588 -1.15003,2.04841 -1.2477,4.34379 z"
           id="path3-9-7" />
        <path
           style="font-size:53.6217px;font-family:'League Spartan';-inkscape-font-specification:'League Spartan, @wght=700';font-variation-settings:'wght' 700;fill:#686868;fill-opacity:1;stroke-width:3.53838;stroke-linecap:square;stroke-linejoin:round;stroke-miterlimit:0"
           d="m 198.02785,131.65463 q 0.18767,2.88413 1.81953,5.11725 1.63163,2.23308 4.51121,3.55249 2.94535,1.25409 6.94299,1.2662 3.80103,0.0114 6.81803,-0.76579 3.08249,-0.77713 5.31428,-1.94999 2.29728,-1.1727 3.54621,-2.41409 l 7.69589,12.34387 q -1.64369,1.76445 -4.66346,3.45931 -2.95404,1.6294 -7.80685,2.66333 -4.85274,1.03383 -12.25822,1.01143 -8.91279,-0.0269 -15.8494,-3.39013 -6.93659,-3.36328 -10.91467,-9.8633 -3.97799,-6.50005 -3.94965,-15.87142 0.0238,-7.86415 3.4506,-14.14518 3.49261,-6.34636 10.05712,-9.99645 6.56485,-3.71564 15.80531,-3.687702 8.78171,0.02652 15.19446,3.257112 6.47827,3.2308 9.93242,9.59818 3.51989,6.30192 3.49135,15.73896 -0.002,0.52429 -0.0719,2.09688 -0.005,1.57286 -0.13708,2.09671 z m 20.41299,-10.35839 q -0.0593,-2.09726 -1.10163,-4.13203 -1.04229,-2.10024 -3.13542,-3.41728 -2.09299,-1.38257 -5.36976,-1.39241 -3.27678,-0.01 -5.57443,1.29388 -2.23196,1.23841 -3.41775,3.26644 -1.18577,2.02796 -1.32377,4.32124 z"
           id="path3-9-7-2" />
        <path
           style="font-weight:900;font-size:37.3679px;font-family:Rawline;-inkscape-font-specification:'Rawline, Heavy';fill:#686868;fill-opacity:1;stroke-width:4.4224;stroke-linecap:square;stroke-linejoin:round;stroke-miterlimit:0"
           d="m 384.34633,127.06707 q 0,-8.28069 3.11186,-14.97908 3.16459,-6.6984 8.86088,-10.54865 5.69626,-3.850254 12.86933,-3.850254 5.53806,0 10.17945,2.531674 4.6414,2.53168 7.01484,6.96211 V 76.750024 h 20.51706 v 56.171546 q 0,2.90087 0.8439,4.06121 0.84387,1.16037 3.00635,1.31861 v 17.29977 q -5.27431,1.05486 -8.5971,1.05486 -10.54862,0 -12.13092,-7.85874 l -0.42195,-2.05699 q -2.79539,4.95786 -7.7005,7.43681 -4.90511,2.47892 -10.75964,2.47892 -11.76172,0 -19.30401,-8.28069 -7.48955,-8.28069 -7.48955,-21.30826 z m 42.14184,6.48741 v -10.1267 q -1.47681,-3.74477 -4.43041,-6.06545 -2.95362,-2.37347 -6.17096,-2.37347 -4.43044,0 -7.43679,3.69204 -2.95363,3.63927 -2.95363,8.86085 0,5.32707 3.11184,8.59716 3.11186,3.27007 8.12248,3.27007 5.74899,0 9.75747,-5.8545 z"
           id="path5" />
        <path
           style="font-weight:900;font-size:37.3679px;font-family:Rawline;-inkscape-font-specification:'Rawline, Heavy';fill:#686868;fill-opacity:1;stroke-width:4.4224;stroke-linecap:square;stroke-linejoin:round;stroke-miterlimit:0"
           d="M 324.06122,136.13891 V 98.796703 h 20.51712 v 32.700807 q 0,3.69202 1.63501,5.80174 1.68781,2.10973 4.64143,2.10973 5.80174,0 9.81023,-5.8545 V 98.796703 h 20.51711 v 34.124867 q 0,2.90087 0.8439,4.06121 0.8439,1.16037 3.05911,1.31861 v 17.29977 q -5.27431,1.05486 -8.64989,1.05486 -10.49589,0 -12.07821,-7.85874 l -0.42192,-2.05699 q -7.43682,9.91573 -22.15216,9.91573 -8.59716,0 -13.18581,-5.27431 -4.53592,-5.27434 -4.53592,-15.2428 z"
           id="path4" />
        <path
           style="font-weight:900;font-size:37.3679px;font-family:Rawline;-inkscape-font-specification:'Rawline, Heavy';fill:#686868;fill-opacity:1;stroke-width:4.4224;stroke-linecap:square;stroke-linejoin:round;stroke-miterlimit:0"
           d="m 326.43512,152.4893 q -10.02121,4.32496 -18.88209,4.32496 -3.63926,0 -6.64564,-0.89663 -2.95363,-0.89665 -5.37982,-2.74266 -2.37344,-1.89877 -3.74474,-5.16883 -1.31861,-3.2701 -1.31861,-7.75326 v -26.00241 h -7.01484 V 98.796703 h 7.01484 V 80.969472 h 20.51714 v 17.827231 h 11.12881 v 15.453767 h -11.12881 v 18.77658 q 0,5.06335 4.43041,5.06335 2.79539,0 7.33131,-1.84601 z"
           id="path3" />
        <path
           style="font-weight:900;font-size:37.3679px;font-family:Rawline;-inkscape-font-specification:'Rawline, Heavy';fill:#686868;fill-opacity:1;stroke-width:4.4224;stroke-linecap:square;stroke-linejoin:round;stroke-miterlimit:0"
           d="m 263.7589,156.23478 q -7.58087,0.46336 -14.89184,-1.57327 -7.25832,-2.0399 -12.3784,-6.27134 l 6.23269,-13.01013 q 11.50274,6.64188 19.50477,6.15278 4.4222,-0.27032 4.26452,-2.84996 -0.0804,-1.31609 -1.70809,-2.00926 -1.63083,-0.74576 -5.97873,-1.85389 -3.06514,-0.86943 -4.89367,-1.39179 -1.77914,-0.5781 -4.09757,-1.33478 -2.32165,-0.80926 -3.63018,-1.46903 -1.30852,-0.65984 -2.84373,-1.56995 -1.53841,-0.96283 -2.38923,-1.91483 -0.80139,-1.00785 -1.61886,-2.27889 -0.81749,-1.27107 -1.17403,-2.78167 -0.35977,-1.56327 -0.4724,-3.40583 -0.54383,-8.897 5.64626,-14.82379 6.19009,-5.926698 17.50876,-6.618582 13.0033,-0.794847 23.13937,6.828852 l -7.02881,12.95316 q -10.3232,-5.49865 -16.11415,-5.14466 -4.52746,0.27674 -4.34405,3.27753 0.0933,1.52667 1.67473,2.32833 1.63084,0.74577 5.86059,1.64976 4.82815,1.18453 7.95239,2.15601 3.12094,0.91898 5.9518,2.27825 2.88352,1.35618 4.46377,3.00337 1.57702,1.59452 2.56097,3.8594 0.98386,2.26489 1.17052,5.31828 0.54385,8.89698 -5.4614,14.38974 -6.00847,5.44004 -16.906,6.10619 z"
           id="text1" />
      </g>
    </g>
  </g>
</svg>
