<svg version="1.2" xmlns="http://www.w3.org/2000/svg" viewBox="0 0 45 54" width="45" height="54">
	<style>
		.s0 { opacity: .71;fill: #b1b1b1 } 
		.s1 { fill: none;stroke: #000000;stroke-miterlimit:100;stroke-width: 1.9 } 
		.s2 { fill: #ffffff;stroke: #000000;stroke-miterlimit:100;stroke-width: 1.9 } 
	</style>
	<path id="Forma 2" fill-rule="evenodd" class="s0" d="m20.84 28.26c-7.26 0-13.13-5.87-13.13-13.13 0-7.26 5.87-13.13 13.13-13.13 7.26 0 13.13 5.87 13.13 13.13 0 7.26-5.87 13.13-13.13 13.13z"/>
	<path id="Forma 2 copy" fill-rule="evenodd" class="s1" d="m20.84 28.26c-7.26 0-13.13-5.87-13.13-13.13 0-7.26 5.87-13.13 13.13-13.13 7.26 0 13.13 5.87 13.13 13.13 0 7.26-5.87 13.13-13.13 13.13z"/>
	<path id="Forma 1" class="s2" d="m6.85 40.16c0 0 3.18 1.88 6.04 4.64 3.26 3.13 6.96 7.4 6.96 7.4l13.37 0.07 6-16.51c0 0-2.29-1.44-4.5-3-3.07-2.16-6-4.5-6-4.5h-6.01v-13.51c0 0-0.27-2.68-2.63-2.68-1.98 0-1.87 2.68-1.87 2.68v25.51c0 0-8.95-5.29-11.99-2.13-0.75 0.78 0.63 2.03 0.63 2.03z"/>
</svg>