<?xml version="1.0" encoding="UTF-8" standalone="no"?>
<!-- Created with Inkscape (http://www.inkscape.org/) -->

<svg
   width="210mm"
   height="210mm"
   viewBox="0 0 210 210"
   version="1.1"
   id="svg1"
   xml:space="preserve"
   inkscape:version="1.3.2 (091e20e, 2023-11-25, custom)"
   sodipodi:docname="TabTec Logo3.svg"
   xmlns:inkscape="http://www.inkscape.org/namespaces/inkscape"
   xmlns:sodipodi="http://sodipodi.sourceforge.net/DTD/sodipodi-0.dtd"
   xmlns:xlink="http://www.w3.org/1999/xlink"
   xmlns="http://www.w3.org/2000/svg"
   xmlns:svg="http://www.w3.org/2000/svg"><sodipodi:namedview
     id="namedview1"
     pagecolor="#ffffff"
     bordercolor="#000000"
     borderopacity="0.25"
     inkscape:showpageshadow="2"
     inkscape:pageopacity="0.0"
     inkscape:pagecheckerboard="0"
     inkscape:deskcolor="#d1d1d1"
     inkscape:document-units="mm"
     inkscape:zoom="0.70822811"
     inkscape:cx="381.93909"
     inkscape:cy="372.05527"
     inkscape:window-width="1920"
     inkscape:window-height="991"
     inkscape:window-x="-9"
     inkscape:window-y="-9"
     inkscape:window-maximized="1"
     inkscape:current-layer="layer1" /><defs
     id="defs1"><linearGradient
       id="linearGradient3"
       inkscape:collect="always"><stop
         style="stop-color:#b644bf;stop-opacity:1;"
         offset="0"
         id="stop3" /><stop
         style="stop-color:#a831bb;stop-opacity:1;"
         offset="0.4486607"
         id="stop5" /><stop
         style="stop-color:#410d50;stop-opacity:1;"
         offset="1"
         id="stop4" /></linearGradient><linearGradient
       inkscape:collect="always"
       xlink:href="#linearGradient3"
       id="linearGradient4"
       x1="29.585199"
       y1="12.125193"
       x2="64.029274"
       y2="178.39772"
       gradientUnits="userSpaceOnUse" /></defs><g
     inkscape:label="Camada 1"
     inkscape:groupmode="layer"
     id="layer1"><g
       id="g2"
       style="fill:#87369d;fill-opacity:1;stroke:#ffffff;stroke-opacity:1;stroke-width:2.1288394;stroke-dasharray:none"
       transform="matrix(1.3038813,-0.25661341,0.25661341,1.3038813,-60.911506,-1.8613916)"><g
         id="g1"
         transform="matrix(0.86599582,-0.282309,0.282309,0.86599582,36.154506,39.118088)"
         style="fill:#87369d;fill-opacity:1;stroke:#ffffff;stroke-opacity:1;stroke-width:2.33720169;stroke-dasharray:none"><path
           id="path76"
           style="font-variation-settings:'wght' 400;fill:url(#linearGradient4);fill-opacity:1;stroke-width:2.33720169;stroke-linecap:square;stroke-linejoin:round;stroke-miterlimit:0;stroke:#ffffff;stroke-opacity:1;stroke-dasharray:none"
           d="m 56.010713,174.9234 c 6.519741,-1.03625 11.619915,-6.20709 12.225891,-12.39528 0.104247,-1.06449 0.214124,-15.55749 0.276474,-36.4636 L 68.616546,91.367614 C 67.300117,89.953525 65.746479,88.755733 64.001662,87.916446 60.489452,86.478789 56.901204,87.102745 53.460777,88.269042 48.417,90.474965 43.77476,88.781405 39.51445,85.633587 l 0.113622,10.649406 c 0.06248,5.857187 0.159173,22.174917 0.214865,36.261617 0.05569,14.0867 0.165039,26.98198 0.242983,28.65616 0.129771,2.78685 0.1859,3.15769 0.664548,4.39035 1.787021,4.60216 5.416023,7.87805 9.93627,8.96946 1.700282,0.41053 4.026442,0.56905 5.323978,0.36282 z M 53.572273,7.1544312 C 42.081025,7.194322 30.620306,7.3438266 29.882742,7.564988 c -2.045972,0.6134844 -3.800447,1.6819551 -5.481129,3.338175 -4.063305,4.004097 -4.860232,8.9556 -2.27725,14.145037 1.115495,2.241047 2.871773,3.980316 5.317099,5.265298 l 1.913696,1.00529 0.0087,65.723673 c 0.01021,67.766249 0.01021,67.769409 1.056129,71.802409 0.357345,1.37805 1.452683,3.72512 2.868144,6.14877 3.143463,5.38238 10.054527,9.98076 16.668812,11.0908 1.275222,0.21392 3.015025,0.40056 3.865759,0.41727 1.952734,0.0356 5.760458,-0.62719 8.147834,-1.41872 6.885112,-2.28276 12.56052,-7.90114 15.15704,-15.00452 1.39261,-3.81017 1.291637,1.1913 1.443664,-71.554941 l 0.141001,-67.337116 1.64223,-0.836463 c 5.684492,-2.894419 8.319337,-9.168688 6.24855,-14.877899 C 85.038832,11.159538 82.095031,8.5650707 77.446061,7.3999987 76.585739,7.184276 65.063606,7.114531 53.572356,7.1544312 Z M 32.39021,15.521932 c 0.573546,-0.01169 10.721918,-0.0037 22.551865,0.01541 20.538659,0.03354 21.54718,0.05855 22.358097,0.564036 2.336699,1.456751 2.717415,4.937388 0.412514,6.666776 -0.901093,0.676145 -1.455336,0.78064 -7.487194,0.776743 -1.048128,-6.77e-4 -2.25733,0.148204 -2.954762,0.1591 -1.549192,0.0242 -2.972266,2.619773 -2.857531,4.351173 0.103244,1.558154 1.698728,3.455273 3.065818,3.542215 1.215157,0.07728 0.261073,0.09936 2.476212,0.136899 0.426549,0.164148 0.464984,2.662747 0.457559,31.782686 l -0.0048,20.374377 0.02398,34.740053 c -0.101333,48.48395 -0.03494,45.1514 -0.963084,47.69081 -1.730527,4.73426 -5.512063,8.4787 -10.100856,10.00014 -1.591138,0.52754 -4.128829,0.96957 -5.43029,0.94581 -0.567,-0.0111 -1.726624,-0.13569 -2.576533,-0.27817 -4.408296,-0.73983 -9.014924,-3.80469 -11.109983,-7.39196 -0.943381,-1.61531 -1.673611,-3.17945 -1.911777,-4.0979 -0.697163,-2.68788 -0.696445,-2.68984 -0.703127,-47.85485 l -0.0058,-40.582802 c -0.07772,-6.279357 0.162682,-10.903168 0.161159,-16.299503 0,-29.536778 -0.04995,-33.550054 -0.434537,-34.470492 -0.684568,-1.63845 -1.444607,-2.259653 -3.188534,-2.604352 -3.118602,-0.616591 -3.661387,-0.837744 -4.384712,-1.786115 -0.571461,-0.749169 -0.709841,-1.250723 -0.709841,-2.565023 0,-1.543464 0.06298,-1.694238 1.136707,-2.715625 0.884497,-0.841263 1.368026,-1.084072 2.179405,-1.099293 z" /></g></g></g></svg>
